<?xml version="1.0" encoding="UTF-8"?>
<svg version="1.1" xmlns="http://www.w3.org/2000/svg" width="116" height="30">
<path d="M0 0 C3.5625 -0.4375 3.5625 -0.4375 7 0 C9 2 9 2 9 6 C9.99 6 10.98 6 12 6 C13.83180987 20.42550274 13.83180987 20.42550274 11.25 25.3125 C8.05676856 29.12663755 8.05676856 29.12663755 5 30 C2.66796188 30.0777346 0.33160941 30.08967728 -2 30 C-1.67 28.68 -1.34 27.36 -1 26 C-3.31 25.67 -5.62 25.34 -8 25 C-7.17343515 11.75321069 -7.17343515 11.75321069 -5 6 C-4.34 5.67 -3.68 5.34 -3 5 C-2.608125 4.154375 -2.21625 3.30875 -1.8125 2.4375 C-1.214375 1.633125 -0.61625 0.82875 0 0 Z M1 2 C-0.29633621 3.06645115 -0.29633621 3.06645115 -0.0625 5.5625 C-0.041875 6.366875 -0.02125 7.17125 0 8 C3.465 7.505 3.465 7.505 7 7 C6.67 5.68 6.34 4.36 6 3 C4.34385343 2.61781233 2.67542976 2.28604898 1 2 Z M4 15 C3.3185177 16.89179203 3.3185177 16.89179203 3 19 C3.66 19.66 4.32 20.32 5 21 C7.10820797 20.6814823 7.10820797 20.6814823 9 20 C8.67 18.35 8.34 16.7 8 15 C6.68 15 5.36 15 4 15 Z M5 24 C5 27 5 27 5 27 Z " fill="#F71414" transform="translate(8,0)"/>
<path d="M0 0 C9.9609375 -0.1953125 9.9609375 -0.1953125 13 0 C15 2 15 2 15.16015625 3.91015625 C15.11181641 4.97556641 15.11181641 4.97556641 15.0625 6.0625 C15.041875 7.361875 15.02125 8.66125 15 10 C15.33 10.33 15.66 10.66 16 11 C16.4603413 16.29392491 16.4603413 16.29392491 14.90234375 18.68359375 C10.83715841 21.49666862 4.67427104 20.13883973 0 20 C0 13.4 0 6.8 0 0 Z M5 4 C5 5.32 5 6.64 5 8 C6.65 7.67 8.3 7.34 10 7 C10 6.01 10 5.02 10 4 C8.35 4 6.7 4 5 4 Z M5 12 C5 13.32 5 14.64 5 16 C6.98 16 8.96 16 11 16 C11 14.68 11 13.36 11 12 C9.02 12 7.04 12 5 12 Z " fill="#F71414" transform="translate(67,4)"/>
<path d="M0 0 C1.65 0 3.3 0 5 0 C5.33 1.98 5.66 3.96 6 6 C6.53625 5.01 7.0725 4.02 7.625 3 C8.40875 2.01 9.1925 1.02 10 0 C13.25 -0.375 13.25 -0.375 16 0 C15.2884375 1.0828125 15.2884375 1.0828125 14.5625 2.1875 C12.46604601 5.88407596 12.46604601 5.88407596 12 10 C13.15060155 12.19930482 14.44566524 14.19913602 15.87109375 16.23046875 C17 18 17 18 17 20 C14.8125 20.4375 14.8125 20.4375 12 20 C10.01558218 17.86004673 8.4976696 15.49824035 7 13 C6.34 15.31 5.68 17.62 5 20 C3.35 20 1.7 20 0 20 C0 13.4 0 6.8 0 0 Z " fill="#F71414" transform="translate(27,4)"/>
<path d="M0 0 C2.30275556 1.8670991 3.67823871 3.35647741 5 6 C5.40251462 11.23269006 4.80083881 14.53940485 2 19 C-1.8503105 21.56687367 -3.58569763 20.83288724 -8 20 C-8 18.68 -8 17.36 -8 16 C-5.66666667 16 -3.33333333 16 -1 16 C-1 15.01 -1 14.02 -1 13 C-2.11375 12.896875 -3.2275 12.79375 -4.375 12.6875 C-6.169375 12.3471875 -6.169375 12.3471875 -8 12 C-10 9 -10 9 -9.8125 5.4375 C-8.47838541 -0.20683097 -5.29818245 -0.64875703 0 0 Z M-5 4 C-5 5.65 -5 7.3 -5 9 C-3.35 8.67 -1.7 8.34 0 8 C-0.33 6.68 -0.66 5.36 -1 4 C-2.32 4 -3.64 4 -5 4 Z " fill="#F71414" transform="translate(54,4)"/>
<path d="M0 0 C2.3125 0.0625 2.3125 0.0625 5 1 C6.8125 4.5625 6.8125 4.5625 8 8 C8.99 5.36 9.98 2.72 11 0 C12.32 0 13.64 0 15 0 C14.49335244 7.2619483 12.21646492 16.78353508 7 22 C3.875 22.125 3.875 22.125 1 22 C1 20.68 1 19.36 1 18 C2.32 18 3.64 18 5 18 C3.12316851 11.45768355 3.12316851 11.45768355 0.8125 5.0625 C0 3 0 3 0 0 Z " fill="#F71414" transform="translate(101,8)"/>
<path d="M0 0 C1.65 0 3.3 0 5 0 C5 3.96 5 7.92 5 12 C6.32 12 7.64 12 9 12 C9 8.37 9 4.74 9 1 C10.65 0.67 12.3 0.34 14 0 C14 5.28 14 10.56 14 16 C11.3703125 16.37125 11.3703125 16.37125 8.6875 16.75 C7.70136719 16.88921875 6.71523437 17.0284375 5.69921875 17.171875 C3 17 3 17 1.15625 15.4375 C-0.36496676 12.23061062 -0.2935275 9.78425013 -0.1875 6.25 C-0.16042969 5.07953125 -0.13335937 3.9090625 -0.10546875 2.703125 C-0.07066406 1.81109375 -0.03585938 0.9190625 0 0 Z " fill="#F71414" transform="translate(85,8)"/>
<path d="M0 0 C1.5547669 3.10953379 1.28644437 5.56266761 1 9 C-0.65989709 12.14194806 -2.03133416 14.31255973 -4.9375 16.375 C-7.37495531 17.11362282 -9.46706921 17.14071838 -12 17 C-11.195625 16.38125 -10.39125 15.7625 -9.5625 15.125 C-6.96125481 13.25835959 -6.96125481 13.25835959 -6 11 C-7.175625 10.8453125 -7.175625 10.8453125 -8.375 10.6875 C-11 10 -11 10 -13 7 C-12.9375 4 -12.9375 4 -12 1 C-7.90221547 -2.85673838 -4.97684159 -2.00987833 0 0 Z M-8 2 C-8.6814823 3.89179203 -8.6814823 3.89179203 -9 6 C-8.34 6.66 -7.68 7.32 -7 8 C-4.89179203 7.6814823 -4.89179203 7.6814823 -3 7 C-3.33 5.35 -3.66 3.7 -4 2 C-5.32 2 -6.64 2 -8 2 Z " fill="#020003" transform="translate(20,13)"/>
</svg>
